<?xml version="1.0" standalone="no"?><!DOCTYPE svg PUBLIC "-//W3C//DTD SVG 1.1//EN" "http://www.w3.org/Graphics/SVG/1.1/DTD/svg11.dtd"><svg t="1522209059441" class="icon" style="" viewBox="0 0 1024 1024" version="1.1" xmlns="http://www.w3.org/2000/svg" p-id="22866" xmlns:xlink="http://www.w3.org/1999/xlink" width="200" height="200"><defs><style type="text/css"></style></defs><path d="M338.432 76.8h604.5184a56.832 56.832 0 0 1 0 113.664H338.432a56.832 56.832 0 0 1 0-113.664z m0 384h604.5184a56.832 56.832 0 0 1 0 113.664H338.432a56.832 56.832 0 1 1 0-113.664z m0 384h604.5184a56.832 56.832 0 0 1 0 113.664H338.432a56.832 56.832 0 1 1 0-113.664z m-223.232-614.4a89.6 89.6 0 1 1 0-179.2 89.6 89.6 0 0 1 0 179.2z m0 384a89.6 89.6 0 1 1 0-179.2 89.6 89.6 0 0 1 0 179.2z m0 384a89.6 89.6 0 1 1 0-179.2 89.6 89.6 0 0 1 0 179.2z" fill="#333333" p-id="22867"></path></svg>