<?xml version="1.0" standalone="no"?><!DOCTYPE svg PUBLIC "-//W3C//DTD SVG 1.1//EN" "http://www.w3.org/Graphics/SVG/1.1/DTD/svg11.dtd"><svg t="1522208300154" class="icon" style="" viewBox="0 0 1024 1024" version="1.1" xmlns="http://www.w3.org/2000/svg" p-id="9025" xmlns:xlink="http://www.w3.org/1999/xlink" width="200" height="200"><defs><style type="text/css"></style></defs><path d="M130.437262 1023.90001V0h384.162484c78.192364 0 140.986232 10.398984 188.181623 31.096963 47.295381 20.697979 84.291768 52.594864 111.089151 95.690655C840.667904 169.88341 853.966605 214.879016 853.966605 261.974417c0 43.795723-11.898838 84.9917-35.596524 123.58793-23.697686 38.596231-59.59418 69.793184-107.589493 93.590861 61.893956 18.198223 109.489308 49.095206 142.786056 92.890928 33.296748 43.795723 49.895127 95.490675 49.895127 155.084855 0 47.995313-10.099014 92.590958-30.397031 133.786935-20.198028 41.195977-45.295577 72.992872-75.092667 95.290694-29.79709 22.397813-67.093448 39.296162-112.089054 50.69505-44.895616 11.398887-99.990235 17.09833-165.183869 17.09833H130.437262z m135.486769-593.642027h221.378381c60.094131 0 103.089933-3.999609 129.187384-11.898838 34.496631-10.199004 60.394102-27.197344 77.892393-50.99502 17.398301-23.697686 26.197442-53.494776 26.197442-89.391271 0-33.99668-8.099209-63.89376-24.497608-89.791231-16.298408-25.897471-39.596133-43.595743-69.793184-53.094815-30.297041-9.499072-82.191973-14.298604-155.784787-14.298604H265.924031v309.469779z m0 472.853822h254.87511c43.695733 0 74.492725-1.599844 92.190997-4.899521 31.196953-5.599453 57.294405-14.898545 78.192364-27.997266 20.897959-12.998731 38.19627-31.996875 51.694951-56.894444s20.198028-53.694756 20.198028-86.291573c0-38.19627-9.799043-71.393028-29.297139-99.490284-19.498096-28.197246-46.69544-47.895323-81.392052-59.3942-34.696612-11.398887-84.591739-17.09833-149.785372-17.09833H265.924031v352.065618z" fill="#231815" p-id="9026"></path></svg>