<?xml version="1.0" standalone="no"?><!DOCTYPE svg PUBLIC "-//W3C//DTD SVG 1.1//EN" "http://www.w3.org/Graphics/SVG/1.1/DTD/svg11.dtd"><svg t="1522393329177" class="icon" style="" viewBox="0 0 1024 1024" version="1.1" xmlns="http://www.w3.org/2000/svg" p-id="15091" xmlns:xlink="http://www.w3.org/1999/xlink" width="200" height="200"><defs><style type="text/css"></style></defs><path d="M514.613524 64.639183c-246.807129 0-446.883957 200.076828-446.883957 446.883957s200.076828 446.883957 446.883957 446.883957 446.883957-200.076828 446.883957-446.883957S761.421676 64.639183 514.613524 64.639183zM715.394387 595.314521c15.425318 0 27.930119 12.504802 27.930119 27.930119 0 15.425318-12.504802 27.930119-27.930119 27.930119L542.544667 651.17476l0 88.792279c0 15.425318-12.504802 27.930119-27.930119 27.930119-15.425318 0-27.930119-12.504802-27.930119-27.930119l0-88.792279L315.484278 651.17476c-15.425318 0-27.930119-12.504802-27.930119-27.930119 0-15.425318 12.504802-27.930119 27.930119-27.930119l171.20015 0 0-100.118232-10.226922-11.602246L315.484278 483.594043c-15.425318 0-27.930119-12.504802-27.930119-27.930119 0-15.425318 12.504802-27.930119 27.930119-27.930119l111.735827 0-111.358227-126.337383c-10.200316-11.571546-9.087982-29.221532 2.484587-39.420825 11.571546-10.200316 29.221532-9.087982 39.420825 2.484587l143.915737 163.274644 25.77913 0 161.183006-164.362418c10.799974-11.013845 28.483728-11.18576 39.497573-0.385786 11.013845 10.799974 11.18576 28.483728 0.385786 39.497573L605.700055 427.732781l109.694331 0c15.425318 0 27.930119 12.504802 27.930119 27.930119 0 15.425318-12.504802 27.930119-27.930119 27.930119L550.920428 483.59302l-8.375761 8.540514 0 103.179964L715.394387 595.313497z" p-id="15092"></path></svg>