<?xml version="1.0" standalone="no"?><!DOCTYPE svg PUBLIC "-//W3C//DTD SVG 1.1//EN" "http://www.w3.org/Graphics/SVG/1.1/DTD/svg11.dtd"><svg t="1522292602488" class="icon" style="" viewBox="0 0 1024 1024" version="1.1" xmlns="http://www.w3.org/2000/svg" p-id="1771" xmlns:xlink="http://www.w3.org/1999/xlink" width="200" height="200"><defs><style type="text/css"></style></defs><path d="M461.6192 575.0784a30.72 30.72 0 0 1-21.7088-52.4288L813.4656 148.8896a30.9248 30.9248 0 0 1 43.4176 0 30.5152 30.5152 0 0 1 0 43.4176L483.328 566.0672a31.3344 31.3344 0 0 1-21.7088 9.0112z" fill="#231815" p-id="1772"></path><path d="M691.4048 886.5792H274.8416a157.2864 157.2864 0 0 1-157.0816-157.0816V312.9344a157.2864 157.2864 0 0 1 157.0816-157.0816h248.0128a30.72 30.72 0 1 1 0 61.44H274.8416a95.8464 95.8464 0 0 0-95.6416 95.6416v416.5632a95.8464 95.8464 0 0 0 95.6416 95.6416h416.5632a95.8464 95.8464 0 0 0 95.8464-95.6416V491.52a30.72 30.72 0 1 1 61.44 0v237.568a157.4912 157.4912 0 0 1-157.2864 157.4912z" fill="#231815" p-id="1773"></path></svg>