<?xml version="1.0" standalone="no"?><!DOCTYPE svg PUBLIC "-//W3C//DTD SVG 1.1//EN" "http://www.w3.org/Graphics/SVG/1.1/DTD/svg11.dtd"><svg t="1522292782269" class="icon" style="" viewBox="0 0 1024 1024" version="1.1" xmlns="http://www.w3.org/2000/svg" p-id="10575" xmlns:xlink="http://www.w3.org/1999/xlink" width="200" height="200"><defs><style type="text/css"></style></defs><path d="M251.4 1001.1c-17.7 0-34.8-5.6-49.3-16.1-26-18.9-38.8-50.4-33.4-82.1l40.7-237.4c1.3-7.7-1.2-15.5-6.8-20.9L30.1 476.4C7.1 454-1 421 8.9 390.4c10-30.6 35.9-52.5 67.8-57.1L315 298.6c7.7-1.1 14.4-6 17.8-12.9l106.6-216c14.2-28.9 43.1-46.8 75.3-46.8 32.2 0 61 17.9 75.3 46.8l106.6 216c3.4 7 10.1 11.8 17.8 12.9l238.3 34.6c31.9 4.6 57.8 26.5 67.8 57.1 9.9 30.6 1.8 63.6-21.2 86.1l-60.8 59.3c-5.7 5.5-13.1 8.6-21 8.6-8.2 0-15.9-3.2-21.6-9.1-5.6-5.8-8.7-13.4-8.6-21.4 0.1-8.1 3.3-15.6 9.1-21.2l60.8-59.3c6.7-6.5 8.9-15.4 6-24.2-2.9-8.9-9.8-14.8-19.1-16.1l-238.3-34.6c-27.4-4-51-21.1-63.2-45.9L536 96.5c-4.1-8.4-11.9-13.2-21.2-13.2-9.3 0-17.1 4.8-21.2 13.2L387 312.5c-12.2 24.8-35.9 42-63.2 45.9L85.3 392.9c-9.1 1.3-16.2 7.3-19.1 16.1-2.9 8.9-0.7 17.7 6 24.2l172.5 168.1c19.8 19.3 28.8 47.1 24.1 74.3L228.1 913c-1.6 9.2 1.8 17.6 9.4 23.1 4.2 3 8.9 4.6 13.8 4.6 3.8 0 7.5-0.9 11.1-2.8l213.2-112.1c4.3-2.3 9.2-3.5 14-3.5 11.2 0 21.5 6.2 26.7 16.1 3.7 7.1 4.5 15.3 2.1 23-2.4 7.7-7.6 14-14.8 17.7L290.5 991.4c-12.1 6.3-25.6 9.7-39.1 9.7zM720 919.8c-16.6 0-30.2-13.5-30.2-30.2V731.9h-156c-16.6 0-30.2-13.5-30.2-30.1s13.5-30.2 30.2-30.2h156.1V513.9c0-16.6 13.5-30.1 30.2-30.1 16.6 0 30.1 13.5 30.1 30.1v157.7h156.1c16.6 0 30.2 13.5 30.2 30.2 0 16.6-13.5 30.1-30.2 30.1H750.2v157.7c0 16.7-13.6 30.2-30.2 30.2z" fill="" p-id="10576"></path></svg>